<?xml version="1.0" encoding="UTF-8" standalone="no"?>
<!DOCTYPE svg PUBLIC "-//W3C//DTD SVG 1.1//EN"
 "http://www.w3.org/Graphics/SVG/1.1/DTD/svg11.dtd">
<!-- Generated by graphviz version 2.43.0 (0)
 -->
<!-- Title: %3 Pages: 1 -->
<svg width="614pt" height="693pt"
 viewBox="0.00 0.00 614.22 693.41" xmlns="http://www.w3.org/2000/svg" xmlns:xlink="http://www.w3.org/1999/xlink">
<g id="graph0" class="graph" transform="scale(1 1) rotate(0) translate(4 689.41)">
<title>%3</title>
<polygon fill="white" stroke="transparent" points="-4,4 -4,-689.41 610.22,-689.41 610.22,4 -4,4"/>
<!-- 0 -->
<g id="node1" class="node">
<title>0</title>
<ellipse fill="none" stroke="black" cx="340.22" cy="-624.19" rx="61.44" ry="61.44"/>
<text text-anchor="middle" x="340.22" y="-627.99" font-family="Times,serif" font-size="14.00">DISCOVERY</text>
<text text-anchor="middle" x="340.22" y="-612.99" font-family="Times,serif" font-size="14.00">Polonium</text>
</g>
<!-- 2 -->
<g id="node3" class="node">
<title>2</title>
<ellipse fill="none" stroke="black" cx="221.22" cy="-436.93" rx="60.09" ry="60.09"/>
<text text-anchor="middle" x="221.22" y="-440.73" font-family="Times,serif" font-size="14.00">PERSON</text>
<text text-anchor="middle" x="221.22" y="-425.73" font-family="Times,serif" font-size="14.00">Marie Curie</text>
</g>
<!-- 0&#45;&gt;2 -->
<g id="edge1" class="edge">
<title>0&#45;&gt;2</title>
<path fill="none" stroke="black" d="M307.39,-572.08C292.31,-548.6 274.35,-520.65 258.74,-496.34"/>
<polygon fill="black" stroke="black" points="261.68,-494.44 253.33,-487.91 255.79,-498.22 261.68,-494.44"/>
<text text-anchor="middle" x="337.72" y="-533.77" font-family="Times,serif" font-size="14.00">DISCOVERED</text>
<text text-anchor="middle" x="337.72" y="-518.77" font-family="Times,serif" font-size="14.00">discovered</text>
</g>
<!-- 1 -->
<g id="node2" class="node">
<title>1</title>
<ellipse fill="none" stroke="black" cx="61.22" cy="-61.22" rx="61.44" ry="61.44"/>
<text text-anchor="middle" x="61.22" y="-65.02" font-family="Times,serif" font-size="14.00">DISCOVERY</text>
<text text-anchor="middle" x="61.22" y="-50.02" font-family="Times,serif" font-size="14.00">Radium</text>
</g>
<!-- 1&#45;&gt;2 -->
<g id="edge2" class="edge">
<title>1&#45;&gt;2</title>
<path fill="none" stroke="black" d="M44.71,-120.35C33.09,-173 24.36,-251.21 54.22,-310.88 75.76,-353.91 119.91,-385.96 157.42,-406.83"/>
<polygon fill="black" stroke="black" points="155.83,-409.95 166.29,-411.63 159.16,-403.8 155.83,-409.95"/>
<text text-anchor="middle" x="104.72" y="-253.46" font-family="Times,serif" font-size="14.00">DISCOVERED</text>
<text text-anchor="middle" x="104.72" y="-238.46" font-family="Times,serif" font-size="14.00">discovered</text>
</g>
<!-- 3 -->
<g id="node4" class="node">
<title>3</title>
<ellipse fill="none" stroke="black" cx="225.22" cy="-249.66" rx="61.44" ry="61.44"/>
<text text-anchor="middle" x="225.22" y="-253.46" font-family="Times,serif" font-size="14.00">PERSON</text>
<text text-anchor="middle" x="225.22" y="-238.46" font-family="Times,serif" font-size="14.00">Pierre Curie</text>
</g>
<!-- 2&#45;&gt;3 -->
<g id="edge4" class="edge">
<title>2&#45;&gt;3</title>
<path fill="none" stroke="black" d="M178.59,-394.52C163.96,-375.28 153.09,-351.66 161.22,-328.88 164.66,-319.24 169.86,-309.93 175.84,-301.3"/>
<polygon fill="black" stroke="black" points="178.66,-303.37 181.77,-293.25 173.02,-299.22 178.66,-303.37"/>
<text text-anchor="middle" x="283.22" y="-347.68" font-family="Times,serif" font-size="14.00">INTERPERSONALRELATIONSHIP</text>
<text text-anchor="middle" x="283.22" y="-332.68" font-family="Times,serif" font-size="14.00">married to</text>
</g>
<!-- 4 -->
<g id="node5" class="node">
<title>4</title>
<ellipse fill="none" stroke="black" cx="427.22" cy="-249.66" rx="58.73" ry="58.73"/>
<text text-anchor="middle" x="427.22" y="-253.46" font-family="Times,serif" font-size="14.00">AWARD</text>
<text text-anchor="middle" x="427.22" y="-238.46" font-family="Times,serif" font-size="14.00">Nobel Prize</text>
</g>
<!-- 2&#45;&gt;4 -->
<g id="edge3" class="edge">
<title>2&#45;&gt;4</title>
<path fill="none" stroke="black" d="M280.5,-426.1C321.56,-416.16 374.24,-396.62 405.22,-358.88 414.61,-347.45 420.34,-333.07 423.76,-318.56"/>
<polygon fill="black" stroke="black" points="427.24,-319.02 425.78,-308.53 420.37,-317.65 427.24,-319.02"/>
<text text-anchor="middle" x="458.72" y="-347.68" font-family="Times,serif" font-size="14.00">AWARDED</text>
<text text-anchor="middle" x="458.72" y="-332.68" font-family="Times,serif" font-size="14.00">awarded</text>
</g>
<!-- 4&#45;&gt;0 -->
<g id="edge5" class="edge">
<title>4&#45;&gt;0</title>
<path fill="none" stroke="black" d="M472.75,-287.36C484.25,-299.26 495.07,-313.43 501.22,-328.88 506.15,-341.27 504.71,-346.02 501.22,-358.88 479.52,-438.87 425.52,-518.42 386.02,-569.03"/>
<polygon fill="black" stroke="black" points="383.26,-566.88 379.81,-576.9 388.76,-571.21 383.26,-566.88"/>
<text text-anchor="middle" x="550.22" y="-440.73" font-family="Times,serif" font-size="14.00">AWARDED</text>
<text text-anchor="middle" x="550.22" y="-425.73" font-family="Times,serif" font-size="14.00">for discovery of</text>
</g>
<!-- 4&#45;&gt;1 -->
<g id="edge6" class="edge">
<title>4&#45;&gt;1</title>
<path fill="none" stroke="black" d="M375.17,-222.15C309.25,-188.57 195.73,-130.74 124.77,-94.59"/>
<polygon fill="black" stroke="black" points="125.98,-91.28 115.48,-89.86 122.8,-97.52 125.98,-91.28"/>
<text text-anchor="middle" x="321.22" y="-159.24" font-family="Times,serif" font-size="14.00">AWARDED</text>
<text text-anchor="middle" x="321.22" y="-144.24" font-family="Times,serif" font-size="14.00">for discovery of</text>
</g>
</g>
</svg>
